<svg xmlns="http://www.w3.org/2000/svg" viewBox="0 0 1818.28 380.71"><defs><style>.cls-1{fill:#2c2c2c}.cls-2{fill:#161616}.cls-3{fill:#fefefe}</style></defs><path class="cls-1" d="M414.92 1176.45a.26.26 0 0 0-.26.26v17.12l-3.37 4.56-10.14 13.7q-10.22 13.79-20.4 27.58-20.14 27.25-40.27 54.54l-23.32 31.62-15.29 20.75-1.43 1.94-1.43 1.94-.08-.08-.18-.16-.38-.32-4.21-3.61-2.36-2-13-11.07-6.86-5.82-19.59-16.63-37.81-32.08-15.29-13-52.65-44.64-.87-.74-.87-.73v-17.91a.55.55 0 0 0-.15-.36.51.51 0 0 0-.72 0 .47.47 0 0 0-.15.36v17.07l-2.93-2.51-3-2.51-3-2.52-1.62-1.37-.8-.68q-2.06-1.76-4.11-3.48a.61.61 0 0 0-.36-.14.5.5 0 0 0-.35.14.56.56 0 0 0-.15.39.44.44 0 0 0 .15.32c1.47 1.27 3 2.53 4.44 3.78l1.69 1.43 5.72 4.85 2.13 1.8 2.13 1.8v251.71h-10.03a.42.42 0 0 0-.4.41.41.41 0 0 0 .4.41c.83 0 1.65 0 2.48.06s1.38 0 2.08 0h5.51v4.6a.51.51 0 1 0 1 0v-4.61h59.36v11.66a1 1 0 0 0 0 .25v4.78a.36.36 0 0 0 0 .11.32.32 0 0 0 .05.14.54.54 0 0 0 .3.24H204.82a.54.54 0 0 0 .32-.29.71.71 0 0 0 0-.2v-4.98-11.72H208a.51.51 0 0 0 .51-.51.52.52 0 0 0-.51-.51h-2.89v-31.53V1408l2.81 2.42 2.8 2.39 10 8.52 5 4.25 14.92 12.7 6.77 5.75 8.25 7 18.66 15.86h-7.71a.3.3 0 0 0-.2.06.37.37 0 0 0-.19.33.45.45 0 0 0 .05.19.43.43 0 0 0 .33.19h8.74l.83.71.39.32a.6.6 0 0 0 .39.19.56.56 0 0 0 .37-.15.54.54 0 0 0 .14-.36.47.47 0 0 0-.14-.36l-.11-.08-.34-.28h29.99l-3.86 5.55-1 1.39q-1.6 2.21-3.23 4.38a.48.48 0 0 0 .07.6.51.51 0 0 0 .36.15.46.46 0 0 0 .26-.07.52.52 0 0 0 .18-.18l8.54-11.61h5.31a.49.49 0 0 0 .34-.14.49.49 0 0 0 .15-.35.43.43 0 0 0-.07-.25.48.48 0 0 0-.41-.25h-4.55l.73-1.08.8-1.09 6.43-8.75 5.1-6.93 11.51-15.66q3.56-4.83 7.09-9.67l4.34-5.92 8.79-12 13.84-18.87v85.1h-7.2a.26.26 0 0 0-.26.26.25.25 0 0 0 .26.26h7.21l-.05 23.83v33.59a.46.46 0 0 0 .23.39.41.41 0 0 0 .23.06.43.43 0 0 0 .31-.14.41.41 0 0 0 .14-.31V1527v-.75-.74-2V1515.82 1491.04v-18.46h46.45V1498c0 .16 0 .21.07.26a.42.42 0 0 0 .17.18.56.56 0 0 0 .26.07.48.48 0 0 0 .36-.15.38.38 0 0 0 .13-.22.47.47 0 0 0 0-.17V1485.57v-13h5.56a.7.7 0 0 0 .23-.06l.14-.14a.56.56 0 0 0 .07-.16.58.58 0 0 0-.05-.32.52.52 0 0 0-.08-.11.49.49 0 0 0-.23-.11H415.38V1463v-48.16-35.27q0-15.71-.05-31.4t0-31.39v-31.58-91.2l2.34-3.17 2.31-3.15.47-.63.82-1.11a.19.19 0 0 0 0-.18.28.28 0 0 0-.12-.18.31.31 0 0 0-.13 0 .28.28 0 0 0-.23.13l-1.18 1.6-.5.67-3.82 5.2v-16.44a.26.26 0 0 0-.26-.26z" transform="translate(-127.59 -1149.69)" id="Draw_Layer" data-name="Draw Layer"/><path class="cls-1" d="M558.17 1270.69a.26.26 0 0 0-.19.44l.11.11 8.57 8.8-25 34-14.33 19.48-45.05 61.23-17 23-28 38-3.41 4.64-3.41 4.63-.36.49-.44.6-.42.56-.78 1.06-.09.13-.09.13-.21.28c-.11.15-.22.29-.32.44a.49.49 0 0 0-.05.39l-.34.55-.21.28-.35.47-.35.47h-1.26a.49.49 0 1 0 0 1h.56l-1.18 1.56-1.68 2.27a.51.51 0 0 0-.33.21l-.36.47-.36.48-.18.23-.18.24a1.35 1.35 0 0 0-.2.27c-.07.11-.16.23-.24.34s-.25.34-.36.52-.4.58-.61.86l-.18.24-.78 1.08c-.15.19-.28.38-.42.57l-.08.11-.06.11-.07.1a3 3 0 0 0-.18.3.36.36 0 0 0 .05.44.38.38 0 0 0 .26.11.36.36 0 0 0 .26-.11 2.78 2.78 0 0 0 .27-.33 1.51 1.51 0 0 0 .22-.25l.7-.93c.42-.58.85-1.16 1.28-1.73a3.61 3.61 0 0 0 .25-.3c.17-.22.28-.37.38-.52a1.72 1.72 0 0 0 .16-.18l.19-.28.2-.27c.26-.38.53-.75.8-1.12a.48.48 0 0 0 .05-.32l2.82-3.86.07-.09.16-.22h83l-2 2.65-2 2.66a.49.49 0 0 0 0 .39.52.52 0 0 0 .23.31.45.45 0 0 0 .25.07.58.58 0 0 0 .45-.25l4.29-5.84h6.16a.51.51 0 0 0 .51-.51.52.52 0 0 0-.51-.51h-5.43l7.67-10.4 7.63-10.36 17.91-24.35.16-.2h44.71c-1.32 1.76-2.64 3.55-4 5.33l-8.18 11-3.52 4.75-5.88 7.92-5.91 8-2.81 3.79-2.8 3.79-.27.35-.25.35h-6.6a.51.51 0 1 0 0 1h5.87c-1.54 2.06-3.05 4.1-4.56 6.14-1.24 1.67-2.47 3.35-3.7 5l-1 1.29-1 1.29-.46.62-.46.62-.29.4c-.18.24-.36.49-.55.73a.56.56 0 0 0 0 .4.54.54 0 0 0 .24.3.52.52 0 0 0 .25.07h.14a.56.56 0 0 0 .3-.23c.23-.33.47-.66.71-1l.37-.5 1.44-2 2.77-3.77 2.8-3.82 2.78-3.8 1.31-1.79h197l1 1.08 1 1.08.22.21.08.08s.06.06.1.09l.6.59.3.29a.44.44 0 0 0 .33.14.45.45 0 0 0 .33-.14.47.47 0 0 0 0-.66l-.45-.48-.43-.45-.07-.09c-.07-.09-.15-.16-.22-.24l-.08-.08-.5-.51-.9-.93h11.41a.48.48 0 0 0 .35-.14.52.52 0 0 0 .16-.37.51.51 0 0 0-.15-.35.5.5 0 0 0-.36-.16h-12.16l-48.63-49.8-11.81-11.92q-7.87-8.07-15.74-16.13l-27.47-28.15-17.27-17.72q-19-19.5-38.07-39l-9.42-9.62-9.42-9.62-8.24-8.42 2.57-3.47a.51.51 0 0 0 0-.4l1.12-1.62a.22.22 0 0 0 0-.18.34.34 0 0 0-.13-.18.28.28 0 0 0-.13 0 .31.31 0 0 0-.22.12l-1.12 1.52h-.19a.49.49 0 0 0-.3.23l-2.41 3.27-2.5-2.58-5-5.09-1.15-1.18a.27.27 0 0 0-.18-.07z" transform="translate(-127.59 -1149.69)" id="Draw_Layer-2" data-name="Draw Layer"/><path class="cls-1" d="M1585.63 1480.33a.32.32 0 0 0 .19-.07.27.27 0 0 0 0-.37l-.11-.12-8.56-8.79 25-34 14.33-19.47 45.06-61.23 17-23 28-38 3.41-4.63 3.41-4.63.36-.49.45-.6.41-.56.78-1.07.09-.12.09-.13.21-.28c.11-.15.22-.29.32-.44a.49.49 0 0 0 0-.39l.34-.55.21-.28.35-.47.35-.47h1.26a.49.49 0 0 0 .49-.49.5.5 0 0 0-.49-.49h-.58l1.18-1.56 1.68-2.26a.51.51 0 0 0 .33-.21l.36-.48.36-.47.18-.23.18-.24a1.35 1.35 0 0 0 .2-.27l.24-.34c.12-.17.25-.34.36-.52s.41-.58.62-.86l.17-.24.79-1.08.41-.58.08-.1a.24.24 0 0 0 .06-.11l.07-.1c.07-.1.13-.2.19-.3a.38.38 0 0 0-.06-.44.36.36 0 0 0-.26-.11.4.4 0 0 0-.26.1c-.1.11-.18.23-.27.34a1 1 0 0 0-.21.24l-.7.94c-.43.58-.85 1.15-1.29 1.73a3.61 3.61 0 0 0-.25.3l-.38.51-.16.19-.19.27-.2.28-.79 1.12a.37.37 0 0 0-.05.31l-2.83 3.87-.07.09-.16.22h-83l2-2.65 2-2.67a.48.48 0 0 0 0-.39.52.52 0 0 0-.23-.3.45.45 0 0 0-.25-.07.55.55 0 0 0-.45.25l-4.29 5.84h-6.16a.53.53 0 0 0-.51.51.52.52 0 0 0 .51.51h5.43l-7.67 10.4-7.63 10.37-17.91 24.34-.15.21h-44.72l4-5.33 8.19-11 3.51-4.74 5.88-7.93 5.91-8 2.81-3.78 2.81-3.79.26-.35.25-.35h6.6a.51.51 0 0 0 .51-.51.51.51 0 0 0-.51-.51h-5.87c1.54-2.05 3.05-4.1 4.56-6.14l3.7-5 1-1.29 1-1.29.46-.63.46-.62.29-.39.55-.74a.48.48 0 0 0 0-.39.52.52 0 0 0-.23-.3.48.48 0 0 0-.26-.07.27.27 0 0 0-.13 0 .53.53 0 0 0-.31.23c-.23.33-.47.65-.71 1l-.37.5-1.44 2-2.77 3.77-2.8 3.83-2.78 3.8-1.31 1.79h-197l-1-1.08-1-1.08-.22-.22-.08-.07a.41.41 0 0 0-.1-.09l-.6-.59-.3-.3a.51.51 0 0 0-.34-.13.46.46 0 0 0-.33.13.48.48 0 0 0 0 .67l.45.47.43.46.07.09.23.24.07.08.5.51.9.92h-11.41a.48.48 0 0 0-.35.14.53.53 0 0 0-.15.37.52.52 0 0 0 .14.35.5.5 0 0 0 .36.16h12.4l48.62 49.79 11.82 12.11 15.74 16.13q13.73 14.07 27.46 28.15 8.64 8.85 17.27 17.71 19 19.5 38.07 39l9.42 9.62 9.42 9.61 8.24 8.43-2.56 3.47a.52.52 0 0 0-.06.4l-1.12 1.62a.17.17 0 0 0 0 .17.24.24 0 0 0 .12.18.2.2 0 0 0 .13 0 .31.31 0 0 0 .23-.13l1.12-1.52h.18a.55.55 0 0 0 .31-.23l2.4-3.27 2.5 2.58 5 5.09 1.14 1.18a.31.31 0 0 0 .18.07z" transform="translate(-127.59 -1149.69)" id="Draw_Layer-3" data-name="Draw Layer"/><g id="Draw_Layer-4" data-name="Draw Layer"><path class="cls-2" d="M1942.9 1257.77c-1.48 6.67-2.84 13.4-4 20h-209.31v-2.45-1.58a.43.43 0 0 0-.13-.31.49.49 0 0 0-.32-.14.46.46 0 0 0-.45.45V1277.8h-3.19a.63.63 0 0 0-.26.16.41.41 0 0 0-.15.33.4.4 0 0 0 .14.32.65.65 0 0 0 .27.17.71.71 0 0 0 .21 0h3V1279.7a2.91 2.91 0 0 0 0 .51v190.4h-4a.51.51 0 1 0 0 1h4V1479.96a.48.48 0 0 0 .2.38.45.45 0 0 0 .28.1.48.48 0 0 0 .34-.14.51.51 0 0 0 .14-.34V1476v-4.51H1939v.5a.45.45 0 0 0 .11.2 1.54 1.54 0 0 0 0 .17.43.43 0 0 0 .41.31.44.44 0 0 0 .32-.15.33.33 0 0 0 .1-.27v-.23a.58.58 0 0 0 0-.3v-.24h4.64a.51.51 0 1 0 0-1h-4.84c-.11-.66-.23-1.32-.34-2l-.09-.48v-.1l-.08-.47-.08-.44v-.2l-.08-.49-.11-.62c-.15-.86-.3-1.73-.44-2.6l-.07-.37-.4-2.39c-.85-5.2-1.61-10.29-2.26-15.15v-.45c-1-7.52-1.87-15.24-2.55-22.93v-.1q-.2-2.11-.36-4.23v-.13c-.3-3.47-.54-6.67-.75-9.78h1.37c-.05-.33-.09-.66-.14-1H1932v-.76h-.82v.76H1863.19l-.08-.93-.09-.94-.25-2.79a.55.55 0 0 0 0-.16l-.08-1a3.07 3.07 0 0 1 .68 0h12.32l19.58.06h36.97l.63-.06v-.93h-1.13c-.13-3-.25-6-.34-8.93 0-1.44-.09-2.86-.13-4.28l-.09-4.4v-.17-4.24-4.4-4.44a.36.36 0 0 0 0-.11v-4.3c0-1.44 0-3 .07-4.4s.07-3 .12-4.39a.36.36 0 0 0 0-.11c0-1.42.1-2.85.16-4.27a.37.37 0 0 0 0-.12c.06-1.42.12-2.84.19-4.26a.74.74 0 0 0 0-.12c.06-1.38.14-2.76.21-4.14v-.21H1933.94c0-.33 0-.65-.06-1h-1.92l.06-.89h-.68v.89H1863v-.59c.11-1.24.23-2.47.34-3.71l.12-1.19H1931.4a1.18 1.18 0 0 0 0 .27v.33c.29-.06.59-.1.88-.14a.53.53 0 0 0 0-.13 2.75 2.75 0 0 0 0-.34h1.81l.15-1h-1.9c.06-.66.11-1.32.16-2 .06-.9.13-1.81.2-2.71V1329.44a.34.34 0 0 0 0-.1v.66V1329.41c0-.32 0-.65.08-1l.07-.88.07-.89c.09-1.18.2-2.35.31-3.53q.33-3.63.7-7.25c.49-4.71 1-9.4 1.66-13.94.06-.44.1-.81.16-1.18l.09-.71v-.14c.19-1.39.39-2.78.59-4.16v-.13a901.954 901.954 0 0 1 1.28-8.36c.47-2.87 1-5.66 1.45-8.45h6.1a.51.51 0 0 0 0-1h-5.93c1.21-6.59 2.55-13.28 4-19.86a.29.29 0 0 0-.19-.35h-.07a.28.28 0 0 0-.28.21zM1935.78 1445.23zM1935.78 1445.2z" transform="translate(-127.59 -1149.69)"/><path class="cls-2" d="M1931.26 1340l.66.08v-.08h-.66z" transform="translate(-127.59 -1149.69)"/></g><g id="Draw_Layer-5" data-name="Draw Layer"><path class="cls-1" d="M859.81 1265.51a220.69 220.69 0 0 0-28.76 2.31 198.74 198.74 0 0 0-27.47 6 168.07 168.07 0 0 0-20.35 7.44c-1.84.82-3.64 1.67-5.34 2.52a597 597 0 0 1 7.37-9.79c.06-.06.1-.12.15-.18l-2 .76c-2.65 3.45-5.23 6.9-7.7 10.3-2.24 1.17-4.45 2.4-6.57 3.67a.25.25 0 0 0-.22-.12h-.12l-1.39 1c-.71.53-1.45 1.07-2.21 1.56a.26.26 0 0 0-.09.35.26.26 0 0 0 .23.13.2.2 0 0 0 .13 0c3-2 6.21-3.85 9.58-5.63a390.41 390.41 0 0 0-26.49 41.74 292.08 292.08 0 0 0-14.05 29.54l-.12.3c-1.63-1-3.28-2-4.88-3.05a.3.3 0 0 0-.16 0 .26.26 0 0 0-.2.1.27.27 0 0 0 0 .21.24.24 0 0 0 .11.16c1.62 1.06 3.31 2.11 5 3.11-.14.36-.29.72-.43 1.09.3.11.59.24.89.38l.39-1c3.34 2 6.94 3.9 10.68 5.74 5.53 2.72 11.48 5.3 18.17 7.89 5.9 2.28 12.08 4.42 18.87 6.56 6 1.87 12.24 3.69 18.68 5.4 2.87.77 6.28 1.67 9.78 2.5s7.18 1.6 10.92 2.28 7.46 1.23 11.1 1.65c3 .36 5.84.61 8.58.75-.18 2.25-.34 4.51-.51 6.77-2.92.24-6 .44-9 .57s-6 .18-9.05.18a231.87 231.87 0 0 1-28.23-1.74 219.18 219.18 0 0 1-21.79-3.82 168.75 168.75 0 0 1-35.47-12.19c-1.53-.74-3.1-1.54-4.65-2.36s-3-1.66-4.44-2.51c.43-1.36.88-2.74 1.35-4.13l-.25-.09a3.73 3.73 0 0 1-.76.23c-.39 1.19-.76 2.36-1.13 3.54-1.47-.91-2.94-1.84-4.35-2.78a.29.29 0 0 0-.16 0 .24.24 0 0 0-.25.3.27.27 0 0 0 .1.17c1.42.94 2.9 1.88 4.51 2.85-1.19 3.84-2.26 7.71-3.18 11.47a175.47 175.47 0 0 0-4.3 24.86l-.22-.34-.23-.34-.31-.42c-.19-.26-.38-.52-.56-.79a.47.47 0 0 0-.33-.17.48.48 0 0 0-.34.1.52.52 0 0 0-.18.33.53.53 0 0 0 .11.34l.08.12.12.18c.51.85 1.08 1.7 1.72 2.59-.32 3.64-.51 7.28-.56 10.82a.36.36 0 0 0 .1.27.39.39 0 0 0 .67-.26c0-3.24.21-6.57.49-9.9a30.84 30.84 0 0 0 3.13 3.63l1.25 1.19 1.38 1.25c.92.82 1.93 1.68 3.07 2.61a103.53 103.53 0 0 0 13 8.92 142.36 142.36 0 0 0 14.28 7.27c4.7 2.1 9.74 4.09 15.39 6.07 4.7 1.66 9.85 3.31 15.77 5 5.69 1.67 11.32 3.18 15.59 4.31l7.56 2 2.58.67 5.18 1.33c6.31 1.59 13 3.07 19.79 4.4 12.92 2.51 26.24 4.41 40.73 5.8 2.51.24 5 .46 7.53.68l1.74.15c3.47.31 6.28.53 8.86.7 3.84.25 7.25.37 10.41.37 2.66 0 5.12-.09 7.53-.26a69.5 69.5 0 0 0 8.12-1 50.62 50.62 0 0 0 6.62-1.7.2.2 0 0 0 .09.06h.26l.61-.21c.48-.16 1-.32 1.43-.5l1.4-.56c.84-.36 1.69-.76 2.6-1.22a46.52 46.52 0 0 0 4.92-2.88 53.65 53.65 0 0 0 8.86-7.49 83 83 0 0 0 13.9-20.12c1.87-3.65 3.6-7.5 5.28-11.77 1.53-3.88 2.93-7.9 4.29-12.29a230 230 0 0 0 6-24.25c.71-3.68 1.35-7.43 1.92-11.17 1.48.83 3 1.65 4.44 2.49q3.3 1.84 6.55 3.73l.25-.69c-3.61-2.1-7.35-4.21-11.13-6.28.12-.77.23-1.55.34-2.33a.31.31 0 0 0-.28-.35.32.32 0 0 0-.34.28q-.15 1-.3 2.07c-3.46-1.88-6.95-3.73-10.37-5.5a441.28 441.28 0 0 0-48.37-21.52 358.37 358.37 0 0 0-49.08-14.48q.25-2.79.55-5.59a.42.42 0 0 0-.13-.3h1.2a205.38 205.38 0 0 1 26.93 1.89 315.88 315.88 0 0 1 42.44 9c6.65 1.84 13.43 3.9 20.75 6.29 6 2 12.37 4.17 19.95 6.9l2.13.77.9.32 1.41.51a.28.28 0 0 0 .13 0 .49.49 0 0 0 .44-.35.47.47 0 0 0 0-.36.5.5 0 0 0-.27-.21l-1.15-.43-1.15-.43-.47-.18c.1-.21.2-.45.29-.69s.24-.51.34-.75.28-.7.41-1c.24-.61.45-1.29.69-2.13a29.47 29.47 0 0 0 .9-4.49c.09-.73.15-1.45.2-2.18s.06-1.3.06-2.18a33.23 33.23 0 0 0-.33-4.7 38.19 38.19 0 0 0-.79-4.1 39 39 0 0 0-1.42-4.51c-.45-1.2-1-2.46-1.66-3.84s-1.4-2.69-2.31-4.18A60.21 60.21 0 0 0 979 1310c-1.32-1.6-2.76-3.23-4.28-4.84a97.42 97.42 0 0 0-9.54-8.79 117.56 117.56 0 0 0-22.32-14.1 152.21 152.21 0 0 0-25.79-9.72 189.22 189.22 0 0 0-28-5.52 213.74 213.74 0 0 0-26-1.55h-3.24z" transform="translate(-127.59 -1149.69)"/><path class="cls-1" d="M727.15 1429.25a.54.54 0 0 0-.21 0 .53.53 0 0 0-.24.7.49.49 0 0 0 .28.25 6 6 0 0 1 .7.28l.48.22a.32.32 0 0 0-.12.31.37.37 0 0 0 .14.22c1.7 1.53 3.39 3 5.05 4.6l.39.36a.39.39 0 0 0 .25.14.4.4 0 0 0 .24-.07.36.36 0 0 0 .16.22c1.19.77 2.37 1.55 3.55 2.33s2.62 1.74 4.06 2.62c1.28.8 2.62 1.55 3.81 2.21l4.21 2.32c5.34 2.9 10.82 5.73 16.27 8.41a348.48 348.48 0 0 0 34.22 14.63 270.62 270.62 0 0 0 35.38 10.23c3.26.7 6.48 1.29 9.6 1.77s6.3.87 9.73 1.19c4.94.46 10.12.69 15.38.69h4a211 211 0 0 0 31.55-3.2c4.94-.85 10-1.89 15.62-3.18 5-1.14 10.17-2.48 16-4.1a.34.34 0 0 0 .26-.38.63.63 0 0 0 0-.09h.2a.43.43 0 0 0 .35-.5.44.44 0 0 0-.43-.36c-5.1.93-10.29 1.7-15.5 2.28-4.94.55-10.17 1-15.54 1.18-3.3.13-6.68.2-10 .2-2.72 0-5.49 0-8.23-.13-5.93-.2-12.1-.62-18.37-1.25a298.54 298.54 0 0 1-36.13-6h-.13c-3.12-.72-6.26-1.5-9.46-2.31-3-.76-6.22-1.59-9.46-2.45-6.34-1.69-12.65-3.48-18.76-5.32-13.25-4-25.25-8.21-36.69-12.85-6.27-2.55-12.51-5.31-18.56-8.21a396.43 396.43 0 0 1-8.09-4l-.72-.38c-.84-.44-1.68-.89-2.53-1.32-.49-.25-1-.49-1.47-.71a5.7 5.7 0 0 0-.92-.37.72.72 0 0 0-.19 0z" transform="translate(-127.59 -1149.69)"/></g><g id="Draw_Layer-6" data-name="Draw Layer"><path class="cls-1" d="M1129.63 1266.1a220.55 220.55 0 0 0-28.76 2.31 197.3 197.3 0 0 0-27.47 6 165.79 165.79 0 0 0-20.35 7.44c-1.84.82-3.65 1.66-5.35 2.51 2.39-3.23 4.87-6.53 7.38-9.78a1.33 1.33 0 0 0 .14-.19l-2 .77c-2.64 3.45-5.22 6.9-7.69 10.3-2.24 1.16-4.46 2.4-6.58 3.66a.25.25 0 0 0-.21-.11.24.24 0 0 0-.12 0l-1.39 1c-.72.53-1.45 1.06-2.21 1.55a.27.27 0 0 0-.09.36.25.25 0 0 0 .23.13.17.17 0 0 0 .12 0c3-2 6.22-3.85 9.58-5.63a389.28 389.28 0 0 0-26.48 41.74 289.8 289.8 0 0 0-14 29.53c-.05.1-.09.21-.13.31-1.63-1-3.28-2-4.88-3.06a.33.33 0 0 0-.15 0 .24.24 0 0 0-.25.3.27.27 0 0 0 .1.17c1.63 1.06 3.31 2.11 5 3.11l-.44 1.08.89.38.39-1c3.35 2 7 3.9 10.69 5.74 5.53 2.72 11.47 5.3 18.17 7.89 5.9 2.27 12.07 4.42 18.86 6.56 6 1.86 12.24 3.68 18.69 5.4 2.86.77 6.27 1.67 9.78 2.5s7.17 1.6 10.92 2.28 7.45 1.23 11.09 1.65c3 .36 5.84.6 8.58.74-.17 2.25-.33 4.52-.51 6.77-2.92.25-6 .45-9 .58s-6 .18-9.06.18a230.15 230.15 0 0 1-28.23-1.75 213.53 213.53 0 0 1-21.79-3.82 168.58 168.58 0 0 1-35.47-12.18c-1.53-.75-3.09-1.54-4.64-2.37s-3-1.66-4.44-2.5c.43-1.36.88-2.74 1.35-4.13l-.26-.09a3.83 3.83 0 0 1-.75.23c-.39 1.18-.77 2.36-1.13 3.54-1.48-.91-3-1.84-4.36-2.78a.25.25 0 0 0-.15-.05.24.24 0 0 0-.21.11.28.28 0 0 0 .06.37c1.41.94 2.89 1.87 4.51 2.85-1.19 3.84-2.26 7.7-3.19 11.47a175.17 175.17 0 0 0-4.29 24.86l-.22-.34-.24-.34-.3-.42c-.2-.26-.39-.53-.57-.8a.44.44 0 0 0-.32-.17.48.48 0 0 0-.52.43.49.49 0 0 0 .11.35l.08.12.11.18c.52.85 1.08 1.7 1.73 2.59-.32 3.63-.51 7.28-.57 10.82a.39.39 0 0 0 .11.27.42.42 0 0 0 .28.12.39.39 0 0 0 .38-.39c.06-3.23.22-6.56.49-9.9a33 33 0 0 0 3.13 3.64c.41.4.83.79 1.26 1.18l1.37 1.25c.93.83 1.93 1.68 3.08 2.62a103.38 103.38 0 0 0 13 8.92 144.55 144.55 0 0 0 14.28 7.27c4.71 2.09 9.75 4.08 15.39 6.07 4.7 1.66 9.86 3.31 15.77 5 5.69 1.68 11.33 3.19 15.6 4.31l7.56 2 2.58.66 5.17 1.33c6.32 1.6 13 3.08 19.79 4.4 12.92 2.52 26.24 4.41 40.74 5.81 2.51.24 5 .46 7.53.68l1.73.15c3.47.31 6.29.52 8.87.69 3.84.25 7.25.37 10.41.37 2.65 0 5.11-.08 7.52-.25a71.89 71.89 0 0 0 8.13-1 52.7 52.7 0 0 0 6.62-1.7l.09.06h.26l.6-.21c.48-.16 1-.32 1.44-.5s.93-.37 1.39-.57c.85-.36 1.7-.75 2.61-1.21a45.42 45.42 0 0 0 4.91-2.88 54.19 54.19 0 0 0 8.87-7.49 83.23 83.23 0 0 0 13.9-20.12c1.87-3.65 3.59-7.5 5.28-11.78 1.52-3.87 2.92-7.89 4.28-12.29a226.8 226.8 0 0 0 6-24.24c.71-3.68 1.36-7.44 1.92-11.17l4.45 2.48c2.19 1.23 4.38 2.48 6.55 3.74l.25-.69c-3.61-2.1-7.35-4.21-11.14-6.28.13-.77.24-1.56.35-2.34a.3.3 0 0 0-.29-.34.31.31 0 0 0-.33.28l-.3 2.07c-3.46-1.88-7-3.74-10.37-5.51a442 442 0 0 0-48.37-21.51 356.68 356.68 0 0 0-49.09-14.48c.18-1.86.35-3.73.55-5.59a.41.41 0 0 0-.12-.3h1.1a205.14 205.14 0 0 1 26.93 1.89 316.67 316.67 0 0 1 42.44 9c6.65 1.84 13.44 3.91 20.75 6.3 6 2 12.38 4.17 19.95 6.9l2.13.77.9.32 1.42.51a.25.25 0 0 0 .12 0 .47.47 0 0 0 .44-.34.45.45 0 0 0 0-.36.53.53 0 0 0-.27-.21l-1.16-.43-1.15-.44-.46-.17c.1-.22.19-.46.28-.69s.24-.52.34-.75.29-.7.42-1c.23-.61.45-1.29.68-2.13a28.43 28.43 0 0 0 .9-4.5c.09-.72.16-1.44.21-2.17s.06-1.3.06-2.18a34.77 34.77 0 0 0-.34-4.7 37.61 37.61 0 0 0-.78-4.1 41.18 41.18 0 0 0-1.42-4.52c-.45-1.2-1-2.45-1.66-3.83a46.87 46.87 0 0 0-2.32-4.18 58.82 58.82 0 0 0-4.65-6.32c-1.32-1.6-2.76-3.23-4.27-4.84a97.32 97.32 0 0 0-9.49-8.91 117.88 117.88 0 0 0-22.32-14.1 152.53 152.53 0 0 0-25.79-9.72 190.51 190.51 0 0 0-28-5.53 215.84 215.84 0 0 0-26-1.54h-3.23z" transform="translate(-127.59 -1149.69)"/><path class="cls-1" d="M997 1429.84a.54.54 0 0 0-.21.05.57.57 0 0 0-.27.28.58.58 0 0 0 0 .41.44.44 0 0 0 .27.25 7.52 7.52 0 0 1 .71.29l.47.22a.34.34 0 0 0 0 .53c1.69 1.53 3.38 3.05 5 4.6l.38.36a.38.38 0 0 0 .26.13.35.35 0 0 0 .23-.06.42.42 0 0 0 .16.22l3.56 2.33c1.21.8 2.62 1.73 4.05 2.62 1.28.8 2.63 1.55 3.82 2.21q2.1 1.17 4.21 2.31c5.34 2.91 10.81 5.74 16.27 8.42a344.79 344.79 0 0 0 34.2 14.61 267.69 267.69 0 0 0 35.39 10.23c3.25.7 6.48 1.3 9.59 1.78s6.3.87 9.74 1.19c4.94.45 10.11.69 15.37.69h4a210.93 210.93 0 0 0 31.55-3.19c4.93-.85 10-1.89 15.62-3.18 4.94-1.14 10.16-2.48 16-4.1a.32.32 0 0 0 .26-.38.54.54 0 0 0 0-.1h.2a.43.43 0 0 0-.08-.86c-5.11.93-10.3 1.7-15.5 2.28-5 .55-10.18.94-15.54 1.17-3.3.14-6.69.21-10 .21-2.72 0-5.49 0-8.24-.14-5.92-.19-12.1-.61-18.36-1.25a298.62 298.62 0 0 1-36.14-6h-.12c-3.12-.72-6.26-1.5-9.47-2.31-3-.76-6.21-1.59-9.46-2.46-6.33-1.68-12.65-3.47-18.76-5.31-13.24-4-25.25-8.21-36.69-12.86-6.26-2.54-12.51-5.3-18.55-8.2-3.11-1.5-5.68-2.78-8.09-4l-.73-.38c-.84-.45-1.68-.89-2.53-1.32-.48-.25-1-.49-1.46-.72a7.83 7.83 0 0 0-.93-.37H997z" transform="translate(-127.59 -1149.69)"/></g><g id="Draw_Layer-7" data-name="Draw Layer"><path class="cls-1" d="M1373.31 1265.82a.48.48 0 0 0-.48.47v4.57q-9.84 0-19.7.07h-13.12l-42.17.17-16.16.07v-2.7-1.13a3.4 3.4 0 0 0 0-.45l-.08-.18a.37.37 0 0 0-.35-.19.36.36 0 0 0-.34.19.69.69 0 0 0-.09.29v4.16h-5.55a.51.51 0 0 0 0 1H1280.83v199.83h-6.29a.48.48 0 1 0 0 1h6.3v18.4a.51.51 0 0 0 1 0V1473l37.36-.13h.26l27-.1 17.8-.07h8.68v13.3a.51.51 0 0 0 .51.51.52.52 0 0 0 .51-.51v-13.32h13.99a.51.51 0 0 0 .51-.51.52.52 0 0 0-.51-.51h-14v-65.43-134.37h7.84a.53.53 0 0 0 .51-.51.51.51 0 0 0-.51-.51h-7.85v-4.55a.48.48 0 0 0-.47-.47zM1345.28 1149.73h-10.62l-21.52.09-13.37.05c-1.45.89-2.85 1.85-4.22 2.88a50.33 50.33 0 0 0-15.75 20.35 54.51 54.51 0 0 0-3.51 12.79 55.66 55.66 0 0 0 0 13.71 54.68 54.68 0 0 0 3.48 12.68c.5 1.16 1 2.29 1.62 3.42l.21.39c.43.81.87 1.6 1.34 2.39a55 55 0 0 0 3.41 5 49.81 49.81 0 0 0 16.42 13.76h9.88l37.35-.15a50.26 50.26 0 0 0 26.19-37.84 56.81 56.81 0 0 0 0-13.29 50.56 50.56 0 0 0-19.1-33.09 58.253 58.253 0 0 0-4.75-3.22h-7z" transform="translate(-127.59 -1149.69)"/></g><g id="Draw_Layer-8" data-name="Draw Layer"><path class="cls-3" d="M1326.26 1212a9.46 9.46 0 0 0-2.7.47 9 9 0 0 0-2.53 1.31 9.5 9.5 0 0 0-2.63 2.94v13.08h16.21v-13a.31.31 0 0 0 0-.1.36.36 0 0 0-.1-.18 10.44 10.44 0 0 0-.73-1 9.74 9.74 0 0 0-.92-1 9 9 0 0 0-1.2-1 9.22 9.22 0 0 0-2.51-1.18 8.91 8.91 0 0 0-1.37-.28 9.26 9.26 0 0 0-1.27-.09zM1341.54 1174v20.97a.76.76 0 0 1 0 .15h7.07v-20.5h.06v-.62zM1308.48 1171.63H1303.58v-.1h-.49v24.07a2.76 2.76 0 0 0 0 .39v1.99a.35.35 0 0 0 .05.2h.67a.22.22 0 0 0 .11 0h6.61v-26.66z" transform="translate(-127.59 -1149.69)"/></g></svg>